<?xml version="1.0" standalone="no"?>
<!DOCTYPE svg PUBLIC "-//W3C//DTD SVG 20010904//EN"
 "http://www.w3.org/TR/2001/REC-SVG-20010904/DTD/svg10.dtd">
<svg version="1.0" xmlns="http://www.w3.org/2000/svg"
 width="400.000000pt" height="400.000000pt" viewBox="0 0 400.000000 400.000000"
 preserveAspectRatio="xMidYMid meet">

<g transform="translate(0.000000,400.000000) scale(0.100000,-0.100000)"
fill="#000000" stroke="none">
<path d="M0 2000 l0 -2000 2000 0 2000 0 0 2000 0 2000 -2000 0 -2000 0 0
-2000z m2905 1320 c34 -72 43 -81 125 -124 l63 -34 -60 -30 c-67 -34 -109 -77
-137 -140 -10 -23 -23 -42 -27 -42 -5 0 -21 24 -35 53 -35 70 -48 82 -121 124
-35 19 -63 36 -63 38 0 2 24 16 53 30 67 34 95 62 132 130 17 30 33 55 36 55
3 0 18 -27 34 -60z m495 -570 c39 -60 99 -112 164 -141 l48 -21 -49 -23 c-99
-46 -168 -127 -206 -245 l-23 -72 -24 63 c-50 137 -119 210 -245 259 l-30 12
52 19 c106 40 191 151 223 288 l13 54 22 -72 c13 -39 37 -94 55 -121z m-766
-6 c9 -8 16 -22 16 -29 0 -7 -7 -21 -16 -29 -30 -30 -74 -13 -74 29 0 42 44
59 74 29z m-1202 -484 c2 -77 1 -145 0 -151 -2 -5 -130 -73 -283 -149 -153
-77 -279 -145 -279 -150 0 -6 102 -10 285 -10 l285 0 0 -100 0 -100 -379 0
-378 0 -8 53 -8 52 -10 -52 -10 -53 -63 0 -64 0 0 148 0 147 280 140 c154 77
280 145 280 152 0 10 -61 13 -280 13 l-280 0 0 100 0 100 454 0 455 0 3 -140z
m848 114 c62 -29 107 -82 115 -139 19 -123 -39 -189 -189 -215 -36 -7 -66 -16
-66 -20 0 -4 25 -11 56 -15 104 -13 163 -50 190 -120 36 -96 0 -186 -94 -232
l-57 -28 -367 -3 -368 -3 0 401 0 401 368 -3 c347 -3 369 -4 412 -24z m938 -3
c72 -27 75 -30 101 -151 l18 -85 7 50 c4 28 9 63 12 78 l6 29 24 -23 c14 -13
39 -53 57 -88 30 -62 32 -71 32 -181 0 -105 -3 -120 -28 -172 -35 -71 -101
-137 -173 -172 -100 -49 -159 -56 -511 -56 l-323 0 0 401 0 401 358 -4 c342
-4 360 -5 420 -27z m-2488 -939 c39 -75 93 -125 168 -160 l55 -25 -50 -23
c-105 -50 -185 -153 -213 -273 l-13 -55 -27 77 c-41 117 -118 203 -215 244
-42 17 -59 33 -35 33 6 0 30 9 53 20 91 43 172 155 198 275 l13 59 16 -55 c9
-30 32 -83 50 -117z m626 -508 c15 -12 48 -32 75 -45 27 -12 49 -25 49 -29 0
-4 -22 -17 -49 -30 -61 -28 -101 -68 -140 -139 l-29 -54 -30 59 c-35 68 -57
90 -129 129 -29 16 -53 31 -53 35 0 4 19 16 42 26 63 28 106 70 140 137 l30
60 34 -64 c19 -35 46 -74 60 -85z m-496 -308 c6 -8 10 -25 8 -38 -4 -32 -62
-39 -78 -9 -23 44 38 85 70 47z"/>
<path d="M1800 2155 l0 -65 113 0 c127 0 157 11 157 58 0 58 -32 72 -164 72
l-106 0 0 -65z"/>
<path d="M1800 1845 l0 -65 106 0 c129 0 163 14 164 68 0 12 -9 31 -20 42 -18
18 -33 20 -135 20 l-115 0 0 -65z"/>
<path d="M2760 2000 l0 -190 130 0 c146 0 189 13 229 69 44 62 44 180 0 243
-38 53 -87 68 -231 68 l-128 0 0 -190z"/>
</g>
</svg>
